HIERARCHY
ROOT hip
{
  OFFSET 0 0 0
  CHANNELS 6 Xposition Yposition Zposition Zrotation Yrotation Xrotation
  JOINT abdomen
  {
    OFFSET 0 20.6881 -0.73152
    CHANNELS 3 Zrotation Xrotation Yrotation
    JOINT chest
    {
      OFFSET 0 11.7043 -0.48768
      CHANNELS 3 Zrotation Xrotation Yrotation
      JOINT neck
      {
        OFFSET 0 22.1894 -2.19456
        CHANNELS 3 Zrotation Xrotation Yrotation
        JOINT head
        {
          OFFSET -0.24384 7.07133 1.2192
          CHANNELS 3 Zrotation Xrotation Yrotation
          JOINT leftEye
          {
            OFFSET 4.14528 8.04674 8.04672
            CHANNELS 3 Zrotation Xrotation Yrotation
            End Site
            {
              OFFSET 1 0 0
            }
          }
          JOINT rightEye
          {
            OFFSET -3.6576 8.04674 8.04672
            CHANNELS 3 Zrotation Xrotation Yrotation
            End Site
            {
              OFFSET 1 0 0
            }
          }
        }
      }
      JOINT rCollar
      {
        OFFSET -2.68224 19.2634 -4.8768
        CHANNELS 3 Zrotation Xrotation Yrotation
        JOINT rShldr
        {
          OFFSET -8.77824 -1.95073 1.46304
          CHANNELS 3 Zrotation Xrotation Yrotation
          JOINT rForeArm
          {
            OFFSET -28.1742 -1.7115 0.48768
            CHANNELS 3 Zrotation Xrotation Yrotation
            JOINT rHand
            {
              OFFSET -22.5879 0.773209 7.07136
              CHANNELS 3 Zrotation Xrotation Yrotation
              JOINT rThumb1
              {
                OFFSET -1.2192 -0.487915 3.41376
                CHANNELS 3 Zrotation Xrotation Yrotation
                JOINT rThumb2
                {
                  OFFSET -3.37035 -0.52449 3.41376
                  CHANNELS 3 Zrotation Xrotation Yrotation
                  End Site
                  {
                    OFFSET -1.78271 -1.18214 1.43049
                  }
                }
              }
              JOINT rIndex1
              {
                OFFSET -7.75947 0.938293 5.60832
                CHANNELS 3 Zrotation Xrotation Yrotation
                JOINT rIndex2
                {
                  OFFSET -2.54057 -0.884171 1.56538
                  CHANNELS 3 Zrotation Xrotation Yrotation
                  End Site
                  {
                    OFFSET -1.62519 -0.234802 1.16502
                  }
                }
              }
              JOINT rMid1
              {
                OFFSET -8.24714 1.18213 3.41376
                CHANNELS 3 Zrotation Xrotation Yrotation
                JOINT rMid2
                {
                  OFFSET -3.10165 -0.590103 1.0647
                  CHANNELS 3 Zrotation Xrotation Yrotation
                  End Site
                  {
                    OFFSET -2.48547 -0.328903 0.83742
                  }
                }
              }
              JOINT rRing1
              {
                OFFSET -8.82822 0.546677 1.51678
                CHANNELS 3 Zrotation Xrotation Yrotation
                JOINT rRing2
                {
                  OFFSET -2.60934 -0.819778 -0.0198488
                  CHANNELS 3 Zrotation Xrotation Yrotation
                  End Site
                  {
                    OFFSET -2.33842 -0.294052 0.168128
                  }
                }
              }
              JOINT rPinky1
              {
                OFFSET -8.27202 -0.0477905 -0.4584
                CHANNELS 3 Zrotation Xrotation Yrotation
                JOINT rPinky2
                {
                  OFFSET -1.82734 -0.647385 -0.700984
                  CHANNELS 3 Zrotation Xrotation Yrotation
                  End Site
                  {
                    OFFSET -1.69225 -0.51767 -0.607171
                  }
                }
              }
            }
          }
        }
      }
      JOINT lCollar
      {
        OFFSET 2.68224 19.2634 -4.8768
        CHANNELS 3 Zrotation Xrotation Yrotation
        JOINT lShldr
        {
          OFFSET 8.77824 -1.95073 1.46304
          CHANNELS 3 Zrotation Xrotation Yrotation
          JOINT lForeArm
          {
            OFFSET 28.1742 -1.7115 0.48768
            CHANNELS 3 Zrotation Xrotation Yrotation
            JOINT lHand
            {
              OFFSET 22.5879 0.773209 7.07136
              CHANNELS 3 Zrotation Xrotation Yrotation
              JOINT lThumb1
              {
                OFFSET 1.2192 -0.487915 3.41376
                CHANNELS 3 Zrotation Xrotation Yrotation
                JOINT lThumb2
                {
                  OFFSET 3.37035 -0.52449 3.41376
                  CHANNELS 3 Zrotation Xrotation Yrotation
                  End Site
                  {
                    OFFSET 1.78271 -1.18214 1.43049
                  }
                }
              }
              JOINT lIndex1
              {
                OFFSET 7.75947 0.938293 5.60832
                CHANNELS 3 Zrotation Xrotation Yrotation
                JOINT lIndex2
                {
                  OFFSET 2.54057 -0.884171 1.56538
                  CHANNELS 3 Zrotation Xrotation Yrotation
                  End Site
                  {
                    OFFSET 1.62519 -0.234802 1.16502
                  }
                }
              }
              JOINT lMid1
              {
                OFFSET 8.24714 1.18213 3.41376
                CHANNELS 3 Zrotation Xrotation Yrotation
                JOINT lMid2
                {
                  OFFSET 3.10165 -0.590103 1.0647
                  CHANNELS 3 Zrotation Xrotation Yrotation
                  End Site
                  {
                    OFFSET 2.48547 -0.328903 0.83742
                  }
                }
              }
              JOINT lRing1
              {
                OFFSET 8.82822 0.546677 1.51678
                CHANNELS 3 Zrotation Xrotation Yrotation
                JOINT lRing2
                {
                  OFFSET 2.60934 -0.819778 -0.0198488
                  CHANNELS 3 Zrotation Xrotation Yrotation
                  End Site
                  {
                    OFFSET 2.33842 -0.294052 0.168128
                  }
                }
              }
              JOINT lPinky1
              {
                OFFSET 8.27202 -0.0477905 -0.4584
                CHANNELS 3 Zrotation Xrotation Yrotation
                JOINT lPinky2
                {
                  OFFSET 1.82734 -0.647385 -0.700984
                  CHANNELS 3 Zrotation Xrotation Yrotation
                  End Site
                  {
                    OFFSET 1.69225 -0.51767 -0.607171
                  }
                }
              }
            }
          }
        }
      }
    }
  }
  JOINT rButtock
  {
    OFFSET -8.77824 4.35084 1.2192
    CHANNELS 3 Zrotation Xrotation Yrotation
    JOINT rThigh
    {
      OFFSET 0 -1.70687 -2.19456
      CHANNELS 3 Zrotation Xrotation Yrotation
      JOINT rShin
      {
        OFFSET 0 -36.8199 0.73152
        CHANNELS 3 Zrotation Xrotation Yrotation
        JOINT rFoot
        {
          OFFSET 0.73152 -45.1104 -5.12064
          CHANNELS 3 Zrotation Xrotation Yrotation
          End Site
          {
            OFFSET -1.1221 -3.69964 12.103
          }
        }
      }
    }
  }
  JOINT lButtock
  {
    OFFSET 8.77824 4.35084 1.2192
    CHANNELS 3 Zrotation Xrotation Yrotation
    JOINT lThigh
    {
      OFFSET 0 -1.70687 -2.19456
      CHANNELS 3 Zrotation Xrotation Yrotation
      JOINT lShin
      {
        OFFSET 0 -36.8199 0.73152
        CHANNELS 3 Zrotation Xrotation Yrotation
        JOINT lFoot
        {
          OFFSET -0.73152 -45.1104 -5.12064
          CHANNELS 3 Zrotation Xrotation Yrotation
          End Site
          {
            OFFSET 1.1221 -3.69964 12.103
          }
        }
      }
    }
  }
}
MOTION
Frames:	4
Frame Time:	0.03333
6.148499999999999 41.3992 41.2916 -150.800074 83.931344 -145.374799 0.305137 13.898104 -115.045991 11.233603 1.967012 139.600868 -7.253088 32.036316 -126.331571 25.695575 31.820484 161.0512 0.000394 0.0 0.001759 0.000394 0.0 0.001759 -121.235945 60.263393 124.879605 112.521185 -40.353411 138.813482 168.520119 -17.172583 29.784964 168.825382 -13.963484 145.188331 -4.164907 4.058182 0.782965 8.535963 -10.007552 -3.750297 -46.207696 39.65325 36.318333 117.46182 -63.329996 65.122819 -164.184077 -17.817573 144.60263 3.391544 -0.625328 0.276976 -72.351218 72.973435 90.218819 -159.823078 -1.709653 176.469144 -7.143461 -15.707945 -6.726308 2.640114 -0.428689 -0.1631 143.157129 39.097994 -147.58606 80.827869 49.654495 -49.847613 13.04426 -68.914702 162.895191 170.22826 0.167024 -142.262668 89.136494 38.426777 -50.298814 -49.147564 -40.02661 -24.226197 -20.932263 -37.332672 5.932982 154.746834 -9.545962 -111.844612 160.827436 -7.141578 -143.316422 -2.651519 1.632336 -0.585713 -0.001055 -0.018576 0.005423 154.392859 11.217371 -170.333105 144.260318 9.238048 141.008964 126.525675 -29.676059 124.096523 -0.000693 0.000447 0.00089 -72.715581 -47.300853 -180.0 -119.233956 -35.360425 -27.372409 54.248862 58.358518 62.89847 -179.995323 75.74809 -0.004825 -144.445269 -13.130321 95.759573 104.407935 -19.837628 -78.97575 27.172851 -27.124878 -4.90992
6.0373 41.0423 41.275800000000004 -150.574113 83.951421 -145.190966 -1.549964 12.736948 -173.003171 2.064711 9.553038 -162.335832 10.967533 26.213953 109.519023 -28.723542 16.53007 -67.126436 9.3e-05 -0.0 -0.001379 -0.000408 -0.0 0.000682 4.224614 -44.025563 -8.500021 -24.759644 86.48697 90.376691 98.597499 39.596544 80.564452 -171.962752 42.014073 144.83885 -89.136387 38.426567 50.298879 -122.705122 -16.460772 76.396317 -57.120418 42.209262 46.039893 3.647221 4.241488 -2.497178 10.383564 -32.500247 -3.262948 29.319192 -60.226607 6.478162 -72.756948 -72.144204 -89.771756 -67.36401 83.31467 85.11714 -151.369343 34.082713 -146.972618 23.061252 60.475263 5.844207 -0.035 -0.209315 0.047414 -55.105105 9.975415 -19.3466 151.521255 17.274317 -20.094887 176.134752 -20.537899 -145.527995 -8.545291 -8.539137 0.684683 136.934919 -36.577447 -122.207651 -10.746312 -19.04812 4.72644 175.754464 -34.962806 -106.860504 164.099289 -17.54727 -144.578221 163.330223 -4.779238 -142.967243 145.099915 -1.522555 178.650908 -12.141341 51.118437 2.967631 -0.098486 0.258689 -0.089227 159.509082 55.553804 150.085852 -0.0 -6.1e-05 -0.001068 -73.491877 -47.519027 -180.0 -114.29613 -35.870675 16.23526 73.912854 25.918485 31.980497 -0.005991 0.001689 -0.002995 93.742017 -55.441434 -176.844117 104.921149 -19.074677 -106.130947 166.703415 -2.938851 -26.015838
5.919300000000001 40.793600000000005 41.274899999999995 -150.267053 84.011863 -144.872871 -1.471569 12.834554 -173.403231 2.082423 9.623356 -162.046248 -9.64794 20.104134 -52.30162 29.178588 -4.079875 94.47284 -0.000302 0.0 -0.001392 -0.00024 -0.0 0.003946 -8.661196 32.586094 10.123861 -102.659643 15.712292 112.872301 -168.275056 -46.710411 -66.797764 -6.424039 28.516973 1.741159 -164.69917 -2.371666 89.585129 35.999309 -62.23844 30.548446 -1.160766 1.86147 0.667377 17.650451 -8.990724 -1.336163 -125.643856 49.839929 115.274119 173.034313 -58.93607 136.641034 -0.014856 -1.323193 -0.415606 4.4044 41.44233 7.703746 -80.50396 -51.275419 -78.929116 -153.73714 36.267669 -147.132613 44.923067 -86.287579 66.530795 124.821363 -24.697383 136.996086 11.598176 19.909279 142.210814 172.52634 -8.022488 -143.82389 178.92775 -16.453537 -89.422634 -52.73765 -71.821604 -39.58535 -5.921707 -10.174499 2.968504 156.504155 -8.191842 -110.284344 -2.100199 -6.305415 1.081308 176.474864 -42.241958 -142.907804 145.118365 0.310611 179.224697 -11.939925 52.756107 2.721821 -11.40827 38.077957 -9.693105 151.601659 23.884521 146.007172 -179.989825 75.75024 -0.010498 137.562216 0.218495 90.092708 106.45576 6.517904 -46.254652 20.626249 -63.837144 -39.165303 179.999723 75.750251 0.000228 -144.308219 -14.167559 94.274933 113.739657 -22.24621 9.869891 -179.535292 0.589269 83.696921
5.8179 40.592800000000004 41.281099999999995 -149.644787 84.043939 -144.215332 0.367871 13.727123 -130.922698 9.851546 4.854718 154.58933 10.352819 28.03457 120.662985 -27.605374 21.95993 -76.802896 0.003884 -0.0 -0.002322 -0.001745 -0.0 0.002903 -155.549047 -3.804227 161.899915 -31.85236 7.799164 -24.972841 168.713411 -35.346965 -80.259106 -15.735582 49.239574 5.988016 -121.36545 30.329563 71.957171 -135.676562 -13.126381 70.790855 -151.353231 -17.158383 121.133136 95.744436 -70.678597 42.634778 -161.518922 -9.304378 143.624905 174.578725 -56.637031 137.741896 -145.083793 -2.373444 -178.382152 -154.205119 71.879613 169.595424 -138.443072 -6.230341 -135.660022 -11.171981 -26.152924 -13.802207 155.716501 -4.925263 -162.13589 -152.119889 -14.945854 172.032784 -88.953957 58.04106 -115.855786 142.030128 47.705346 -118.213397 6.580287 6.345157 -1.366063 -0.731962 0.315642 -3.655204 -88.792273 -75.498959 -40.050164 -65.911654 -58.723826 -13.206659 -3.962694 -12.153898 1.886496 -2.357275 2.441884 -0.320103 -0.000239 -0.018464 0.006134 156.481301 -25.093253 -174.786403 149.198524 25.859959 145.260263 11.201833 -25.288699 13.285907 -179.998582 75.749038 -0.001463 139.957266 -0.17568 -89.790951 -118.580329 -12.001671 -57.809906 -147.219732 35.878489 -118.016324 0.0 -0.001136 0.000223 97.102294 -54.122556 -84.235083 -149.772652 -58.398041 -114.867828 31.535377 24.997046 137.143027
